#Produced by polyHédronisme http://levskaya.github.com/polyhedronisme
group lC
#vertices
v 0.5773502691896257 0.5773502691896257 0.5773502691896257
v -0.5773502691896257 0.5773502691896257 0.5773502691896257
v -0.5773502691896257 -0.5773502691896257 0.5773502691896257
v 0.5773502691896257 -0.5773502691896257 0.5773502691896257
v 0.5773502691896257 -0.5773502691896257 -0.5773502691896257
v 0.5773502691896257 0.5773502691896257 -0.5773502691896257
v -0.5773502691896257 0.5773502691896257 -0.5773502691896257
v -0.5773502691896257 -0.5773502691896257 -0.5773502691896257
v -0.2886751345948129 -2.050711200988287e-17 0.5773502691896257
v -2.4824398748805577e-17 -0.28867513459481287 0.5773502691896257
v 0.2886751345948128 -2.050711200988287e-17 0.5773502691896257
v -2.4824398748805577e-17 0.28867513459481287 0.5773502691896257
v 0.5773502691896257 0.28867513459481287 -1.5110503586229483e-17
v 0.5773502691896257 -2.050711200988287e-17 0.28867513459481287
v 0.5773502691896257 -0.28867513459481287 -1.5110503586229483e-17
v 0.5773502691896257 -2.050711200988287e-17 -0.28867513459481287
v -0.2886751345948129 0.5773502691896257 -1.5110503586229483e-17
v -2.4824398748805577e-17 0.5773502691896257 0.28867513459481287
v 0.2886751345948128 0.5773502691896257 -1.5110503586229483e-17
v -2.4824398748805577e-17 0.5773502691896257 -0.28867513459481287
v -0.5773502691896257 -0.28867513459481287 -1.5110503586229483e-17
v -0.5773502691896257 -2.050711200988287e-17 0.28867513459481287
v -0.5773502691896257 0.28867513459481287 -1.5110503586229483e-17
v -0.5773502691896257 -2.050711200988287e-17 -0.28867513459481287
v 0.2886751345948128 -0.5773502691896257 -1.5110503586229483e-17
v -2.4824398748805577e-17 -0.5773502691896257 0.28867513459481287
v -0.2886751345948129 -0.5773502691896257 -1.5110503586229483e-17
v -2.4824398748805577e-17 -0.5773502691896257 -0.28867513459481287
v -0.2886751345948129 -2.050711200988287e-17 -0.5773502691896257
v -2.4824398748805577e-17 0.28867513459481287 -0.5773502691896257
v 0.2886751345948128 -2.050711200988287e-17 -0.5773502691896257
v -2.4824398748805577e-17 -0.28867513459481287 -0.5773502691896257
#normal vector defs 
vn 0.3333333333333333 -0.6666666666666666 0.6666666666666666
vn 0 -1 0
vn 0 0 1
vn -0.6666666666666667 -0.6666666666666664 -0.3333333333333332
vn -0.6666666666666667 0.3333333333333332 0.6666666666666664
vn -1 0 0
vn -0.3333333333333333 -0.6666666666666666 0.6666666666666666
vn 0 -1 0
vn 0 0 1
vn -0.6666666666666667 -0.6666666666666664 0.3333333333333332
vn -0.6666666666666667 -0.3333333333333332 0.6666666666666664
vn 0 -1 0
vn 0 0 1
vn 0 -1 0
vn 0 0 1
vn -1 0 0
vn -1 0 0
vn -1 0 0
vn 0.6666666666666666 -0.6666666666666666 -0.3333333333333333
vn 0.6666666666666666 0.3333333333333333 0.6666666666666666
vn 1 0 0
vn 0.3333333333333333 -0.6666666666666666 -0.6666666666666666
vn 0.3333333333333333 0.6666666666666666 0.6666666666666666
vn 0 -1 0
vn 0 0 1
vn -0.6666666666666667 0.3333333333333332 -0.6666666666666664
vn -0.6666666666666667 0.6666666666666664 -0.3333333333333332
vn 0.6666666666666666 -0.6666666666666666 0.3333333333333333
vn 0.6666666666666666 -0.3333333333333333 0.6666666666666666
vn 0 0 -1
vn 0 1 0
vn -0.3333333333333333 -0.6666666666666666 -0.6666666666666666
vn -0.3333333333333333 0.6666666666666666 0.6666666666666666
vn -1 0 0
vn -0.6666666666666667 -0.3333333333333332 -0.6666666666666664
vn -0.6666666666666667 0.6666666666666664 0.3333333333333332
vn 1 0 0
vn 1 0 0
vn 1 0 0
vn 0 0 -1
vn 0 1 0
vn 0 0 -1
vn 0 1 0
vn 0.6666666666666666 0.3333333333333333 -0.6666666666666666
vn 0.6666666666666666 0.6666666666666666 -0.3333333333333333
vn 0 0 -1
vn 0 1 0
vn 0.3333333333333333 0.6666666666666666 -0.6666666666666666
vn 1 0 0
vn 0.6666666666666666 -0.3333333333333333 -0.6666666666666666
vn 0.6666666666666666 0.6666666666666666 0.3333333333333333
vn 0 0 -1
vn 0 1 0
vn -0.3333333333333333 0.6666666666666666 -0.6666666666666666
#face defs 
f 26//1 10//1 3//1 
f 26//2 3//2 27//2 
f 9//3 3//3 10//3 
f 21//4 27//4 3//4 
f 9//5 22//5 3//5 
f 21//6 3//6 22//6 
f 10//7 26//7 4//7 
f 25//8 4//8 26//8 
f 10//9 4//9 11//9 
f 27//10 21//10 8//10 
f 22//11 9//11 2//11 
f 26//12 27//12 28//12 25//12 
f 10//13 11//13 12//13 9//13 
f 27//14 8//14 28//14 
f 12//15 2//15 9//15 
f 24//16 8//16 21//16 
f 22//17 23//17 24//17 21//17 
f 22//18 2//18 23//18 
f 25//19 15//19 4//19 
f 14//20 11//20 4//20 
f 14//21 4//21 15//21 
f 32//22 28//22 8//22 
f 12//23 18//23 2//23 
f 28//24 5//24 25//24 
f 11//25 1//25 12//25 
f 24//26 29//26 8//26 
f 17//27 23//27 2//27 
f 15//28 25//28 5//28 
f 11//29 14//29 1//29 
f 32//30 8//30 29//30 
f 17//31 2//31 18//31 
f 28//32 32//32 5//32 
f 18//33 12//33 1//33 
f 23//34 7//34 24//34 
f 29//35 24//35 7//35 
f 23//36 17//36 7//36 
f 15//37 5//37 16//37 
f 14//38 15//38 16//38 13//38 
f 13//39 1//39 14//39 
f 31//40 5//40 32//40 
f 18//41 1//41 19//41 
f 30//42 31//42 32//42 29//42 
f 18//43 19//43 20//43 17//43 
f 31//44 16//44 5//44 
f 13//45 19//45 1//45 
f 29//46 7//46 30//46 
f 20//47 7//47 17//47 
f 20//48 30//48 7//48 
f 16//49 6//49 13//49 
f 16//50 31//50 6//50 
f 19//51 13//51 6//51 
f 30//52 6//52 31//52 
f 19//53 6//53 20//53 
f 30//54 20//54 6//54 
