#Produced by polyHédronisme http://levskaya.github.com/polyhedronisme
group D
#vertices
v -5.185680236835953e-18 2.4199841105234448e-17 1
v 0.6666641755490578 2.4199841105234448e-17 0.7453529757956785
v -0.3333320877745289 0.577316505833886 0.7453529757956785
v -0.3333320877745289 -0.577316505833886 0.7453529757956785
v 0.7453529757956785 0.5773482675833979 0.3333320877745289
v 0.7453529757956785 -0.577316505833886 0.3333320877745289
v -0.8726746195596327 0.3568208357076798 0.3333320877745289
v 0.12732164376395413 0.9341691032910777 0.3333320877745289
v 0.12732164376395413 -0.9341691032910777 0.3333320877745289
v -0.8726746195596327 -0.3568208357076798 0.3333320877745289
v 0.8726746195596327 0.3568208357076798 -0.3333320877745289
v 0.8726746195596327 -0.3568208357076798 -0.3333320877745289
v -0.7453529757956785 0.577316505833886 -0.3333320877745289
v -0.12732164376395413 0.9341691032910777 -0.3333320877745289
v -0.12732164376395413 -0.9341691032910777 -0.3333320877745289
v -0.7453529757956785 -0.5773482675833979 -0.3333320877745289
v 0.3333320877745289 0.577316505833886 -0.7453529757956785
v 0.3333320877745289 -0.577316505833886 -0.7453529757956785
v -0.6666641755490578 2.4199841105234448e-17 -0.7453529757956785
v -5.185680236835953e-18 2.4199841105234448e-17 -1
#normal vector defs 
vn 0.4911323627916632 -0.8506449270520053 -0.18759586962235236
vn 0.3035305352691908 -0.525738086390567 0.7946500353473742
vn 0.9822469463762215 0 0.18759247408835011
vn -0.4911219496935794 -0.8506478191562524 0.18761001650735204
vn 0.6070635529226635 0 -0.7946532845920368
vn -0.30352139779894016 -0.5257351941082523 -0.7946554390137499
vn 0.3035213977989402 0.5257351941082524 0.79465543901375
vn -0.6070635529226635 0 0.7946532845920368
vn 0.4911219496935794 0.8506478191562524 -0.18761001650735204
vn -0.9822469463762215 0 -0.18759247408835011
vn -0.30353053526919077 0.5257380863905671 -0.7946500353473742
vn -0.4911323627916632 0.8506449270520053 0.1875958696223524
#face defs 
f 6//1 9//1 15//1 18//1 12//1 
f 1//2 4//2 9//2 6//2 2//2 
f 2//3 6//3 12//3 11//3 5//3 
f 4//4 10//4 16//4 15//4 9//4 
f 11//5 12//5 18//5 20//5 17//5 
f 15//6 16//6 19//6 20//6 18//6 
f 1//7 2//7 5//7 8//7 3//7 
f 1//8 3//8 7//8 10//8 4//8 
f 5//9 11//9 17//9 14//9 8//9 
f 7//10 13//10 19//10 16//10 10//10 
f 13//11 14//11 17//11 20//11 19//11 
f 3//12 8//12 14//12 13//12 7//12 
