#Produced by polyHédronisme http://levskaya.github.com/polyhedronisme
group aC
#vertices
v -0.7071067811865475 1.387988382853408e-17 0.7071067811865475
v 9.253255885689386e-18 -0.7071067811865475 0.7071067811865475
v 9.253255885689386e-18 0.7071067811865475 0.7071067811865475
v 0.7071067811865475 1.387988382853408e-17 0.7071067811865475
v 0.7071067811865475 -0.7071067811865475 -4.857959339986928e-17
v 0.7071067811865475 1.387988382853408e-17 -0.7071067811865475
v 0.7071067811865475 0.7071067811865475 -4.857959339986928e-17
v 9.253255885689386e-18 0.7071067811865475 -0.7071067811865475
v -0.7071067811865475 0.7071067811865475 -4.857959339986928e-17
v -0.7071067811865475 1.387988382853408e-17 -0.7071067811865475
v -0.7071067811865475 -0.7071067811865475 -4.857959339986928e-17
v 9.253255885689386e-18 -0.7071067811865475 -0.7071067811865475
#normal vector defs 
vn 0.5773502691896257 -0.5773502691896257 0.5773502691896257
vn 0 0 1
vn 0 -1 0
vn 1 0 0
vn -0.5773502691896257 -0.5773502691896257 0.5773502691896257
vn 0.5773502691896257 0.5773502691896257 0.5773502691896257
vn 0.5773502691896257 -0.5773502691896257 -0.5773502691896257
vn -0.5773502691896257 0.5773502691896257 0.5773502691896257
vn -0.5773502691896257 -0.5773502691896257 -0.5773502691896257
vn 0.5773502691896257 0.5773502691896257 -0.5773502691896257
vn -1 0 0
vn 0 1 0
vn 0 0 -1
vn -0.5773502691896257 0.5773502691896257 -0.5773502691896257
#face defs 
f 2//1 5//1 4//1 
f 2//2 4//2 3//2 1//2 
f 2//3 11//3 12//3 5//3 
f 4//4 5//4 6//4 7//4 
f 1//5 11//5 2//5 
f 4//6 7//6 3//6 
f 5//7 12//7 6//7 
f 3//8 9//8 1//8 
f 10//9 12//9 11//9 
f 6//10 8//10 7//10 
f 1//11 9//11 10//11 11//11 
f 3//12 7//12 8//12 9//12 
f 8//13 6//13 12//13 10//13 
f 8//14 10//14 9//14 
